<?xml version="1.0" encoding="utf-8"?>
<!-- Generator: Adobe Illustrator 20.1.0, SVG Export Plug-In . SVG Version: 6.00 Build 0)  -->
<svg version="1.1" id="Layer_1" xmlns="http://www.w3.org/2000/svg" xmlns:xlink="http://www.w3.org/1999/xlink" x="0px" y="0px"
	 viewBox="0 0 156 12" style="enable-background:new 0 0 156 12;" xml:space="preserve">
<style type="text/css">
	.st0{fill:#FFFFFF;}
</style>
<g>
	<g>
		<g>
			<path class="st0" d="M5.7,11.3L4,7.7H2.8v3.5H0V0.8h4.7c0.6,0,1.2,0.1,1.7,0.2c0.5,0.1,0.9,0.3,1.3,0.6C8,1.8,8.3,2.2,8.5,2.6
				c0.2,0.4,0.3,1,0.3,1.6c0,0.8-0.2,1.4-0.5,1.9C7.9,6.6,7.5,7,6.9,7.3l2.1,4H5.7z M5.6,3.5c-0.2-0.2-0.5-0.3-1-0.3H2.8v2.3h1.7
				c0.5,0,0.8-0.1,1-0.3c0.2-0.2,0.3-0.5,0.3-0.9C5.9,3.9,5.8,3.7,5.6,3.5z"/>
		</g>
		<g>
			<path class="st0" d="M10.7,11.3V0.8h8v2.4h-5.2v1.4h3.1V7h-3.1v1.8h5.3v2.4H10.7z"/>
		</g>
		<g>
			<path class="st0" d="M29.4,8.4c-0.2,0.7-0.6,1.2-1.1,1.6c-0.5,0.4-1.1,0.7-1.8,0.9c-0.7,0.2-1.5,0.3-2.5,0.3h-3.4V0.8h3.7
				c0.8,0,1.6,0.1,2.2,0.3c0.7,0.2,1.2,0.5,1.7,0.9c0.5,0.4,0.8,0.9,1.1,1.6C29.6,4.1,29.8,5,29.8,6C29.8,6.9,29.7,7.8,29.4,8.4z
				 M26.7,4.8c-0.1-0.4-0.2-0.6-0.4-0.9c-0.2-0.2-0.4-0.4-0.7-0.5c-0.3-0.1-0.7-0.2-1.1-0.2h-0.7v5.5h0.6c0.5,0,0.8,0,1.2-0.1
				c0.3-0.1,0.6-0.3,0.8-0.5c0.2-0.2,0.4-0.5,0.4-0.9C26.7,7,26.8,6.5,26.8,6C26.8,5.5,26.7,5.1,26.7,4.8z"/>
		</g>
		<g>
			<path class="st0" d="M42.1,11.3V7.1h-3.3v4.1h-3V0.8h3v3.8h3.3V0.8h3v10.5H42.1z"/>
		</g>
		<g>
			<path class="st0" d="M54,11.3l-0.6-1.8h-3.1l-0.6,1.8h-3.1l3.8-10.5h2.9l3.8,10.5H54z M52.5,6.4c-0.1-0.3-0.2-0.6-0.2-0.9
				c-0.1-0.3-0.1-0.5-0.2-0.7C52,4.7,52,4.5,51.9,4.3c0-0.2-0.1-0.3-0.1-0.5c0,0.2-0.1,0.4-0.1,0.5c0,0.2-0.1,0.4-0.1,0.6
				c-0.1,0.2-0.1,0.4-0.2,0.7c-0.1,0.2-0.1,0.5-0.2,0.9L51,7.1h1.7L52.5,6.4z"/>
		</g>
		<g>
			<path class="st0" d="M62.6,3.3v8h-2.9v-8h-2.9V0.8h8.8v2.5H62.6z"/>
		</g>
	</g>
	<g>
		<path class="st0" d="M68.9,2.2c-0.1,0.1-0.1,0.2-0.2,0.3c-0.1,0.1-0.2,0.2-0.3,0.2c-0.1,0.1-0.3,0.1-0.4,0.1c-0.1,0-0.3,0-0.4-0.1
			c-0.1-0.1-0.2-0.1-0.3-0.2c-0.1-0.1-0.2-0.2-0.2-0.3c-0.1-0.1-0.1-0.3-0.1-0.4c0-0.1,0-0.3,0.1-0.4c0.1-0.1,0.1-0.2,0.2-0.3
			c0.1-0.1,0.2-0.2,0.3-0.2c0.1-0.1,0.3-0.1,0.4-0.1c0.2,0,0.3,0,0.4,0.1c0.1,0.1,0.2,0.1,0.3,0.2c0.1,0.1,0.2,0.2,0.2,0.3
			C69,1.5,69,1.7,69,1.8C69,2,69,2.1,68.9,2.2z M68.8,1.5c0-0.1-0.1-0.2-0.2-0.3C68.5,1.1,68.4,1,68.3,1c-0.1,0-0.2-0.1-0.3-0.1
			c-0.1,0-0.2,0-0.4,0.1c-0.1,0-0.2,0.1-0.3,0.2c-0.1,0.1-0.1,0.2-0.2,0.3c0,0.1-0.1,0.2-0.1,0.3c0,0.1,0,0.2,0.1,0.3
			c0,0.1,0.1,0.2,0.2,0.3c0.1,0.1,0.2,0.1,0.3,0.2c0.1,0,0.2,0.1,0.4,0.1c0.1,0,0.2,0,0.3-0.1c0.1,0,0.2-0.1,0.3-0.2
			c0.1-0.1,0.1-0.2,0.2-0.3c0-0.1,0.1-0.2,0.1-0.3C68.9,1.7,68.8,1.6,68.8,1.5z M68.4,1.8c0,0.1-0.1,0.1-0.2,0.1l0.2,0.5h-0.2
			L68,1.9h-0.2v0.4h-0.2V1.2h0.5c0,0,0.1,0,0.1,0c0,0,0.1,0,0.1,0.1c0,0,0.1,0.1,0.1,0.1c0,0,0,0.1,0,0.2
			C68.4,1.7,68.4,1.7,68.4,1.8z M68.2,1.5c0,0-0.1,0-0.1,0h-0.3v0.3h0.3c0.1,0,0.1,0,0.1,0c0,0,0.1-0.1,0.1-0.1
			C68.3,1.5,68.2,1.5,68.2,1.5z"/>
	</g>
	<g>
		<path class="st0" d="M78.7,3.8c-0.2-0.4-0.4-0.6-0.7-0.8c-0.3-0.2-0.7-0.3-1.2-0.3c-0.4,0-0.7,0.1-1.1,0.2s-0.6,0.4-0.8,0.7
			s-0.4,0.7-0.5,1.1C74.3,5,74.3,5.5,74.3,6c0,0.5,0.1,0.9,0.2,1.3c0.1,0.4,0.3,0.8,0.5,1.1c0.2,0.3,0.5,0.5,0.8,0.7
			c0.3,0.2,0.7,0.3,1.1,0.3c0.5,0,0.9-0.1,1.2-0.3c0.3-0.2,0.6-0.6,0.9-1L80.6,9c-0.4,0.8-0.9,1.3-1.5,1.8s-1.4,0.6-2.4,0.6
			c-0.7,0-1.3-0.1-1.9-0.4c-0.6-0.3-1.1-0.6-1.5-1.1c-0.4-0.5-0.7-1-0.9-1.7c-0.2-0.7-0.3-1.4-0.3-2.3c0-0.8,0.1-1.5,0.3-2.2
			c0.2-0.7,0.6-1.2,1-1.7c0.4-0.5,0.9-0.9,1.5-1.1s1.2-0.4,1.9-0.4c0.5,0,0.9,0.1,1.3,0.2c0.4,0.1,0.8,0.3,1.1,0.5
			c0.3,0.2,0.6,0.5,0.8,0.7s0.4,0.6,0.6,0.9L78.7,3.8z"/>
		<path class="st0" d="M91.1,6c0,0.8-0.1,1.5-0.3,2.2s-0.5,1.2-0.9,1.7c-0.4,0.5-0.9,0.9-1.4,1.1c-0.6,0.3-1.2,0.4-1.9,0.4
			s-1.4-0.1-1.9-0.4c-0.6-0.3-1.1-0.6-1.4-1.1c-0.4-0.5-0.7-1.1-0.9-1.7C82,7.5,81.9,6.8,81.9,6c0-0.8,0.1-1.5,0.3-2.2
			c0.2-0.7,0.5-1.2,0.9-1.7c0.4-0.5,0.9-0.9,1.4-1.1s1.2-0.4,1.9-0.4s1.4,0.1,1.9,0.4C89,1.2,89.5,1.5,89.9,2
			c0.4,0.5,0.7,1.1,0.9,1.7C91,4.4,91.1,5.2,91.1,6z M88.9,6c0-0.5,0-0.9-0.1-1.3c-0.1-0.4-0.2-0.8-0.4-1.1
			c-0.2-0.3-0.4-0.5-0.8-0.7c-0.3-0.2-0.7-0.3-1.1-0.3c-0.4,0-0.8,0.1-1.1,0.3c-0.3,0.2-0.6,0.4-0.8,0.7c-0.2,0.3-0.3,0.7-0.4,1.1
			C84.1,5,84,5.5,84,6s0,0.9,0.1,1.3c0.1,0.4,0.2,0.8,0.4,1.1c0.2,0.3,0.4,0.5,0.8,0.7c0.3,0.2,0.7,0.3,1.1,0.3
			c0.4,0,0.8-0.1,1.1-0.3c0.3-0.2,0.6-0.4,0.8-0.7c0.2-0.3,0.3-0.7,0.4-1.1C88.8,6.9,88.9,6.4,88.9,6z"/>
		<path class="st0" d="M101,11.3V7.4c0-0.1,0-0.3,0-0.5c0-0.2,0-0.4,0-0.7c0-0.2,0-0.4,0-0.7c0-0.2,0-0.4,0-0.5
			c-0.1,0.2-0.2,0.5-0.3,0.8s-0.3,0.7-0.4,1l-2.2,4.7L96,6.8c-0.1-0.3-0.3-0.6-0.4-1c-0.1-0.3-0.2-0.6-0.3-0.8c0,0.1,0,0.3,0,0.5
			c0,0.2,0,0.4,0,0.7c0,0.2,0,0.5,0,0.7s0,0.4,0,0.5v3.9h-2.1V0.7h2.1l2.2,4.8c0.1,0.2,0.1,0.3,0.2,0.5c0.1,0.2,0.1,0.3,0.2,0.5
			C98,6.6,98,6.7,98.1,6.9c0.1,0.1,0.1,0.3,0.1,0.3c0.1-0.2,0.2-0.5,0.3-0.8c0.1-0.3,0.3-0.7,0.4-1l2.1-4.8h2.1v10.6H101z"/>
		<path class="st0" d="M114.2,4c0,0.6-0.1,1.1-0.3,1.6c-0.2,0.4-0.5,0.8-0.8,1.1s-0.7,0.5-1.2,0.6c-0.5,0.1-1,0.2-1.5,0.2H108v3.8
			h-2.1V0.7h4.6c0.5,0,1,0.1,1.4,0.2s0.8,0.3,1.2,0.6c0.3,0.3,0.6,0.6,0.8,1.1S114.2,3.5,114.2,4z M112,4.1c0-0.5-0.1-0.8-0.4-1
			c-0.3-0.2-0.7-0.3-1.1-0.3H108v2.7h2.5C111.5,5.4,112,5,112,4.1z"/>
		<path class="st0" d="M124.8,6c0,0.8-0.1,1.5-0.3,2.2s-0.5,1.2-0.9,1.7c-0.4,0.5-0.9,0.9-1.4,1.1c-0.6,0.3-1.2,0.4-1.9,0.4
			s-1.4-0.1-1.9-0.4c-0.6-0.3-1.1-0.6-1.4-1.1c-0.4-0.5-0.7-1.1-0.9-1.7c-0.2-0.7-0.3-1.4-0.3-2.2c0-0.8,0.1-1.5,0.3-2.2
			c0.2-0.7,0.5-1.2,0.9-1.7c0.4-0.5,0.9-0.9,1.4-1.1s1.2-0.4,1.9-0.4s1.4,0.1,1.9,0.4c0.6,0.3,1.1,0.6,1.4,1.1
			c0.4,0.5,0.7,1.1,0.9,1.7C124.7,4.4,124.8,5.2,124.8,6z M122.7,6c0-0.5,0-0.9-0.1-1.3c-0.1-0.4-0.2-0.8-0.4-1.1
			c-0.2-0.3-0.4-0.5-0.8-0.7c-0.3-0.2-0.7-0.3-1.1-0.3c-0.4,0-0.8,0.1-1.1,0.3c-0.3,0.2-0.6,0.4-0.8,0.7c-0.2,0.3-0.3,0.7-0.4,1.1
			c-0.1,0.4-0.1,0.9-0.1,1.3s0,0.9,0.1,1.3c0.1,0.4,0.2,0.8,0.4,1.1c0.2,0.3,0.4,0.5,0.8,0.7c0.3,0.2,0.7,0.3,1.1,0.3
			c0.4,0,0.8-0.1,1.1-0.3c0.3-0.2,0.6-0.4,0.8-0.7c0.2-0.3,0.3-0.7,0.4-1.1C122.6,6.9,122.7,6.4,122.7,6z"/>
		<path class="st0" d="M134.5,8.1c0,0.5-0.1,1-0.2,1.4c-0.2,0.4-0.4,0.8-0.8,1.1s-0.8,0.5-1.3,0.7c-0.5,0.2-1.1,0.2-1.9,0.2
			c-0.9,0-1.7-0.2-2.4-0.5c-0.7-0.3-1.3-0.8-1.7-1.4l1.5-1.4c0.4,0.4,0.8,0.7,1.2,0.9c0.5,0.2,0.9,0.3,1.5,0.3
			c0.6,0,1.1-0.1,1.4-0.3c0.3-0.2,0.4-0.5,0.4-0.9c0-0.2,0-0.3-0.1-0.4c-0.1-0.1-0.2-0.2-0.3-0.4c-0.2-0.1-0.4-0.2-0.7-0.3
			c-0.3-0.1-0.7-0.2-1.2-0.3c-0.5-0.1-0.9-0.2-1.3-0.4c-0.4-0.2-0.8-0.3-1.1-0.6s-0.5-0.5-0.7-0.9c-0.2-0.4-0.2-0.8-0.2-1.3
			c0-0.5,0.1-0.9,0.3-1.3s0.5-0.7,0.8-1c0.3-0.3,0.7-0.5,1.2-0.6c0.5-0.1,1-0.2,1.5-0.2c0.8,0,1.6,0.1,2.2,0.4
			c0.6,0.3,1.2,0.7,1.7,1.2l-1.5,1.5c-0.3-0.4-0.7-0.6-1.1-0.8c-0.4-0.2-0.8-0.3-1.3-0.3c-0.3,0-0.5,0-0.7,0.1
			c-0.2,0.1-0.3,0.1-0.5,0.2S129,3,128.9,3.2c-0.1,0.1-0.1,0.2-0.1,0.3c0,0.2,0,0.3,0.1,0.4c0.1,0.1,0.2,0.2,0.3,0.3
			s0.4,0.2,0.7,0.3c0.3,0.1,0.6,0.2,1,0.3c0.4,0.1,0.8,0.2,1.3,0.4s0.8,0.3,1.1,0.6s0.6,0.6,0.8,0.9C134.4,7,134.5,7.5,134.5,8.1z"
			/>
		<path class="st0" d="M136.8,11.3V0.7h7.4v2.1h-5.2v1.8h3v2.1h-3v2.6h5.5v2.1H136.8z"/>
		<path class="st0" d="M152.8,11.3l-1.9-3.8h-2.1v3.8h-2.1V0.7h4.9c0.5,0,1,0.1,1.4,0.2s0.8,0.3,1.2,0.6c0.3,0.3,0.6,0.6,0.8,1.1
			c0.2,0.4,0.3,0.9,0.3,1.5c0,0.8-0.2,1.5-0.5,2c-0.3,0.5-0.8,0.9-1.5,1.2l2,4.1H152.8z M153,4.1c0-0.5-0.1-0.8-0.4-1
			c-0.3-0.2-0.6-0.3-1.1-0.3h-2.8v2.7h2.8C152.5,5.4,153,5,153,4.1z"/>
	</g>
</g>
</svg>
